<svg xmlns="http://www.w3.org/2000/svg" viewBox="0 0 920 520" width="100%" role="img" aria-label="Case file nyxragon crime thread board">
  <defs>
    <linearGradient id="cardBg" x1="0%" y1="0%" x2="100%" y2="100%">
      <stop offset="0%" style="stop-color:#0c0a14"/>
      <stop offset="35%" style="stop-color:#1a1625"/>
      <stop offset="70%" style="stop-color:#0f0e1a"/>
      <stop offset="100%" style="stop-color:#0d0b12"/>
    </linearGradient>
    <linearGradient id="borderGrad" x1="0%" y1="0%" x2="100%" y2="100%">
      <stop offset="0%" style="stop-color:#8A2BE2"/>
      <stop offset="25%" style="stop-color:#00F5FF"/>
      <stop offset="50%" style="stop-color:#8A2BE2"/>
      <stop offset="75%" style="stop-color:#EAB308"/>
      <stop offset="100%" style="stop-color:#8A2BE2"/>
    </linearGradient>
    <linearGradient id="subjectGrad" x1="0%" y1="0%" x2="100%" y2="0%">
      <stop offset="0%" style="stop-color:#a78bfa"/>
      <stop offset="50%" style="stop-color:#22d3ee"/>
      <stop offset="100%" style="stop-color:#a78bfa"/>
    </linearGradient>
    <linearGradient id="pinCyan" x1="0%" y1="0%" x2="0%" y2="100%">
      <stop offset="0%" style="stop-color:#22d3ee;stop-opacity:0.95"/>
      <stop offset="100%" style="stop-color:#0891b2;stop-opacity:0.9"/>
    </linearGradient>
    <linearGradient id="pinPurple" x1="0%" y1="0%" x2="0%" y2="100%">
      <stop offset="0%" style="stop-color:#a78bfa;stop-opacity:0.95"/>
      <stop offset="100%" style="stop-color:#6d28d9;stop-opacity:0.9"/>
    </linearGradient>
    <linearGradient id="pinGold" x1="0%" y1="0%" x2="0%" y2="100%">
      <stop offset="0%" style="stop-color:#fcd34d;stop-opacity:0.95"/>
      <stop offset="100%" style="stop-color:#d97706;stop-opacity:0.9"/>
    </linearGradient>
  </defs>
  <rect width="920" height="520" rx="20" ry="20" fill="url(#cardBg)"/>
  <rect x="4" y="4" width="912" height="512" rx="18" ry="18" fill="none" stroke="url(#borderGrad)" stroke-width="2" opacity="0.9"/>
  <rect x="12" y="12" width="896" height="496" rx="14" ry="14" fill="none" stroke="#00F5FF" stroke-width="0.6" opacity="0.25"/>
  <path d="M 0 0 L 920 0 L 920 44 L 0 44 Z" fill="#1e1b4b" opacity="0.95"/>
  <rect x="0" y="0" width="920" height="44" fill="url(#borderGrad)" opacity="0.2"/>
  <text x="460" y="28" text-anchor="middle" font-family="system-ui,sans-serif" font-size="14" font-weight="700" fill="#00F5FF">CASE FILE - CONFIDENTIAL</text>
  <rect x="310" y="188" width="300" height="88" rx="12" ry="12" fill="#1e1b4b" stroke="url(#subjectGrad)" stroke-width="2"/>
  <text x="460" y="228" text-anchor="middle" font-family="system-ui,sans-serif" font-size="11" font-weight="600" fill="#94a3b8">SUBJECT</text>
  <text x="460" y="252" text-anchor="middle" font-family="monospace" font-size="26" font-weight="700" fill="url(#subjectGrad)">nyxragon</text>
  <text x="460" y="272" text-anchor="middle" font-family="system-ui,sans-serif" font-size="13" fill="#22d3ee">Security Researcher</text>
  <rect x="72" y="72" width="128" height="52" rx="8" ry="8" fill="url(#pinCyan)" stroke="#00F5FF" stroke-width="1.2"/>
  <text x="136" y="98" text-anchor="middle" font-family="system-ui,sans-serif" font-size="12" font-weight="700" fill="#0c0a14">HackerOne</text>
  <text x="136" y="114" text-anchor="middle" font-family="system-ui,sans-serif" font-size="10" fill="#0c0a14">Triage</text>
  <rect x="720" y="72" width="128" height="52" rx="8" ry="8" fill="url(#pinCyan)" stroke="#00F5FF" stroke-width="1.2"/>
  <text x="784" y="98" text-anchor="middle" font-family="system-ui,sans-serif" font-size="12" font-weight="700" fill="#0c0a14">ZERON</text>
  <text x="784" y="114" text-anchor="middle" font-family="system-ui,sans-serif" font-size="10" fill="#0c0a14">R&amp;D / ASM</text>
  <rect x="72" y="396" width="120" height="44" rx="8" ry="8" fill="url(#pinPurple)" stroke="#a78bfa" stroke-width="1.2"/>
  <text x="132" y="420" text-anchor="middle" font-family="system-ui,sans-serif" font-size="11" font-weight="700" fill="#0c0a14">Securityium</text>
  <rect x="728" y="396" width="120" height="44" rx="8" ry="8" fill="url(#pinPurple)" stroke="#a78bfa" stroke-width="1.2"/>
  <text x="788" y="420" text-anchor="middle" font-family="system-ui,sans-serif" font-size="10" font-weight="700" fill="#0c0a14">VTF</text>
  <rect x="380" y="72" width="160" height="40" rx="6" ry="6" fill="url(#pinGold)" stroke="#EAB308" stroke-width="1"/>
  <text x="460" y="96" text-anchor="middle" font-family="monospace" font-size="10" font-weight="700" fill="#0c0a14">CVE-2024-7739 / 7738</text>
  <rect x="380" y="408" width="160" height="40" rx="6" ry="6" fill="url(#pinGold)" stroke="#EAB308" stroke-width="1"/>
  <text x="460" y="432" text-anchor="middle" font-family="system-ui,sans-serif" font-size="11" font-weight="700" fill="#0c0a14">PIIScout</text>
  <rect x="120" y="260" width="100" height="36" rx="6" ry="6" fill="url(#pinPurple)" stroke="#a78bfa" stroke-width="1"/>
  <text x="170" y="282" text-anchor="middle" font-family="system-ui,sans-serif" font-size="10" font-weight="600" fill="#0c0a14">AI Red Team</text>
  <rect x="700" y="260" width="100" height="36" rx="6" ry="6" fill="url(#pinPurple)" stroke="#a78bfa" stroke-width="1"/>
  <text x="750" y="282" text-anchor="middle" font-family="system-ui,sans-serif" font-size="10" font-weight="600" fill="#0c0a14">ASM / EASM</text>
  <rect x="120" y="308" width="88" height="32" rx="6" ry="6" fill="url(#pinCyan)" stroke="#00F5FF" stroke-width="1"/>
  <text x="164" y="328" text-anchor="middle" font-family="system-ui,sans-serif" font-size="10" font-weight="600" fill="#0c0a14">Pentesting</text>
  <rect x="712" y="308" width="88" height="32" rx="6" ry="6" fill="url(#pinCyan)" stroke="#00F5FF" stroke-width="1"/>
  <text x="756" y="328" text-anchor="middle" font-family="system-ui,sans-serif" font-size="10" font-weight="600" fill="#0c0a14">LLM Sec</text>
  <path d="M 460 232 Q 200 140 136 124" fill="none" stroke="#00F5FF" stroke-width="1.2" stroke-opacity="0.85"/>
  <path d="M 460 232 Q 720 140 784 124" fill="none" stroke="#00F5FF" stroke-width="1.2" stroke-opacity="0.85"/>
  <path d="M 460 276 Q 200 380 132 418" fill="none" stroke="#a78bfa" stroke-width="1.2" stroke-opacity="0.85"/>
  <path d="M 460 276 Q 720 380 788 418" fill="none" stroke="#a78bfa" stroke-width="1.2" stroke-opacity="0.85"/>
  <path d="M 460 232 Q 460 120 460 92" fill="none" stroke="#EAB308" stroke-width="1" stroke-opacity="0.8"/>
  <path d="M 460 276 Q 460 400 460 428" fill="none" stroke="#EAB308" stroke-width="1" stroke-opacity="0.8"/>
  <path d="M 460 232 Q 180 260 170 278" fill="none" stroke="#a78bfa" stroke-width="1" stroke-opacity="0.8"/>
  <path d="M 460 232 Q 740 260 750 278" fill="none" stroke="#a78bfa" stroke-width="1" stroke-opacity="0.8"/>
  <path d="M 460 276 Q 180 308 164 324" fill="none" stroke="#00F5FF" stroke-width="1" stroke-opacity="0.8"/>
  <path d="M 460 276 Q 740 308 756 324" fill="none" stroke="#00F5FF" stroke-width="1" stroke-opacity="0.8"/>
  <circle cx="136" cy="98" r="5" fill="#00F5FF" opacity="0.9"/>
  <circle cx="784" cy="98" r="5" fill="#00F5FF" opacity="0.9"/>
  <circle cx="132" cy="418" r="5" fill="#a78bfa" opacity="0.9"/>
  <circle cx="788" cy="418" r="5" fill="#a78bfa" opacity="0.9"/>
  <circle cx="460" cy="92" r="5" fill="#EAB308" opacity="0.9"/>
  <circle cx="460" cy="428" r="5" fill="#EAB308" opacity="0.9"/>
  <circle cx="170" cy="278" r="4" fill="#a78bfa" opacity="0.9"/>
  <circle cx="750" cy="278" r="4" fill="#a78bfa" opacity="0.9"/>
  <circle cx="164" cy="324" r="4" fill="#00F5FF" opacity="0.9"/>
  <circle cx="756" cy="324" r="4" fill="#00F5FF" opacity="0.9"/>
  <rect x="0" y="480" width="920" height="40" fill="#1e1b4b" opacity="0.8"/>
  <text x="460" y="504" text-anchor="middle" font-family="monospace" font-size="11" fill="#64748b">BREAK THINGS - UNDERSTAND THEM - AUTOMATE THE DEFENSE</text>
</svg>
